[Header]
FileType HTR
DataType HTRS
FileVersion 1
NumSegments 64
NumFrames 3
DataFrameRate 30
EulerRotationOrder ZYX
CalibrationUnits mm
RotationUnits Degrees
GlobalAxisofGravity Y
BoneLengthAxis Y
ScaleFactor 1.0
[SegmentNames&Hierarchy]
Hips	GLOBAL
Spine	Hips
Spine1	Spine
Spine2	Spine1
Neck	Spine2
Head	Neck
LeftEye	Head
RightEye	Head
LeftShoulder	Spine2
LeftArm	LeftShoulder
LeftForeArm	LeftArm
LeftHand	LeftForeArm
LeftHandThumb1	LeftHand
LeftHandThumb2	LeftHandThumb1
LeftHandThumb3	LeftHandThumb2
LeftHandThumb4	LeftHandThumb3
LeftHandIndex1	LeftHand
LeftHandIndex2	LeftHandIndex1
LeftHandIndex3	LeftHandIndex2
LeftHandIndex4	LeftHandIndex3
LeftHandMiddle1	LeftHand
LeftHandMiddle2	LeftHandMiddle1
LeftHandMiddle3	LeftHandMiddle2
LeftHandMiddle4	LeftHandMiddle3
LeftHandRing1	LeftHand
LeftHandRing2	LeftHandRing1
LeftHandRing3	LeftHandRing2
LeftHandRing4	LeftHandRing3
LeftHandPinky1	LeftHand
LeftHandPinky2	LeftHandPinky1
LeftHandPinky3	LeftHandPinky2
LeftHandPinky4	LeftHandPinky3
RightShoulder	Spine2
RightArm	RightShoulder
RightForeArm	RightArm
RightHand	RightForeArm
RightHandPinky1	RightHand
RightHandPinky2	RightHandPinky1
RightHandPinky3	RightHandPinky2
RightHandPinky4	RightHandPinky3
RightHandRing1	RightHand
RightHandRing2	RightHandRing1
RightHandRing3	RightHandRing2
RightHandRing4	RightHandRing3
RightHandMiddle1	RightHand
RightHandMiddle2	RightHandMiddle1
RightHandMiddle3	RightHandMiddle2
RightHandMiddle4	RightHandMiddle3
RightHandIndex1	RightHand
RightHandIndex2	RightHandIndex1
RightHandIndex3	RightHandIndex2
RightHandIndex4	RightHandIndex3
RightHandThumb1	RightHand
RightHandThumb2	RightHandThumb1
RightHandThumb3	RightHandThumb2
RightHandThumb4	RightHandThumb3
LeftUpLeg	Hips
LeftLeg	LeftUpLeg
LeftFoot	LeftLeg
LeftToeBase	LeftFoot
RightUpLeg	Hips
RightLeg	RightUpLeg
RightFoot	RightLeg
RightToeBase	RightFoot
[BasePosition]
Hips	0	0	0	0	0	0	1
Spine	0	0	0	0	0	0	1
Spine1	0	0	0	0	0	0	1
Spine2	0	0	0	0	0	0	1
Neck	0	0	0	0	0	0	1
Head	0	0	0	0	0	0	1
LeftEye	0	0	0	0	0	0	1
RightEye	0	0	0	0	0	0	1
LeftShoulder	0	0	0	0	0	0	1
LeftArm	0	0	0	0	0	0	1
LeftForeArm	0	0	0	0	0	0	1
LeftHand	0	0	0	0	0	0	1
LeftHandThumb1	0	0	0	0	0	0	1
LeftHandThumb2	0	0	0	0	0	0	1
LeftHandThumb3	0	0	0	0	0	0	1
LeftHandThumb4	0	0	0	0	0	0	1
LeftHandIndex1	0	0	0	0	0	0	1
LeftHandIndex2	0	0	0	0	0	0	1
LeftHandIndex3	0	0	0	0	0	0	1
LeftHandIndex4	0	0	0	0	0	0	1
LeftHandMiddle1	0	0	0	0	0	0	1
LeftHandMiddle2	0	0	0	0	0	0	1
LeftHandMiddle3	0	0	0	0	0	0	1
LeftHandMiddle4	0	0	0	0	0	0	1
LeftHandRing1	0	0	0	0	0	0	1
LeftHandRing2	0	0	0	0	0	0	1
LeftHandRing3	0	0	0	0	0	0	1
LeftHandRing4	0	0	0	0	0	0	1
LeftHandPinky1	0	0	0	0	0	0	1
LeftHandPinky2	0	0	0	0	0	0	1
LeftHandPinky3	0	0	0	0	0	0	1
LeftHandPinky4	0	0	0	0	0	0	1
RightShoulder	0	0	0	0	0	0	1
RightArm	0	0	0	0	0	0	1
RightForeArm	0	0	0	0	0	0	1
RightHand	0	0	0	0	0	0	1
RightHandPinky1	0	0	0	0	0	0	1
RightHandPinky2	0	0	0	0	0	0	1
RightHandPinky3	0	0	0	0	0	0	1
RightHandPinky4	0	0	0	0	0	0	1
RightHandRing1	0	0	0	0	0	0	1
RightHandRing2	0	0	0	0	0	0	1
RightHandRing3	0	0	0	0	0	0	1
RightHandRing4	0	0	0	0	0	0	1
RightHandMiddle1	0	0	0	0	0	0	1
RightHandMiddle2	0	0	0	0	0	0	1
RightHandMiddle3	0	0	0	0	0	0	1
RightHandMiddle4	0	0	0	0	0	0	1
RightHandIndex1	0	0	0	0	0	0	1
RightHandIndex2	0	0	0	0	0	0	1
RightHandIndex3	0	0	0	0	0	0	1
RightHandIndex4	0	0	0	0	0	0	1
RightHandThumb1	0	0	0	0	0	0	1
RightHandThumb2	0	0	0	0	0	0	1
RightHandThumb3	0	0	0	0	0	0	1
RightHandThumb4	0	0	0	0	0	0	1
LeftUpLeg	0	0	0	0	0	0	1
LeftLeg	0	0	0	0	0	0	1
LeftFoot	0	0	0	0	0	0	1
LeftToeBase	0	0	0	0	0	0	1
RightUpLeg	0	0	0	0	0	0	1
RightLeg	0	0	0	0	0	0	1
RightFoot	0	0	0	0	0	0	1
RightToeBase	0	0	0	0	0	0	1
[Hips]
18	43.48373032	1014.005493	966.5368042	-0.5180521607	3.762351751	1.411881566	1.0
19	40.54402924	1014.180786	1021.234985	0.01292321552	4.522111416	1.706758142	1.0
20	37.04644775	1009.496582	1076.799072	0.8311154246	5.388257504	2.254879475	1.0
[Spine]
18	0	101.8159943	1.315000057	5.125853539	-5.038986683	-2.402626038	1.0
19	0	101.8159943	1.315000057	5.214223385	-5.860005379	-2.855937004	1.0
20	0	101.8159943	1.315000057	4.988390923	-6.597742081	-3.77323103	1.0
[Spine1]
18	0	100.8349991	-10.00800037	2.02837801	-4.032888412	0.8529562354	1.0
19	0	100.8349991	-10.00800037	2.055912971	-5.014874458	1.433369279	1.0
20	0	100.8349991	-10.00800037	2.157099962	-5.913245201	2.15692687	1.0
[Spine2]
18	0	91	-13.73399925	1.992423892	-3.992464781	0.9819825888	1.0
19	0	91	-13.73399925	1.978158116	-4.966946125	1.589400768	1.0
20	0	91	-13.73399925	2.01038003	-5.84630394	2.34884429	1.0
[Neck]
18	0	166.7169952	-25.16200066	0.6187818646	3.15293622	-1.057184219	1.0
19	0	166.7169952	-25.16200066	0.4994320273	3.676631927	-1.090533614	1.0
20	0	166.7169952	-25.16200066	0.3118080199	4.199626446	-1.500268817	1.0
[Head]
18	0	96.17900085	16.84999847	-1.600028992	7.987318516	-2.263475418	1.0
19	0	96.17900085	16.84999847	-1.838357925	9.08997345	-2.469195843	1.0
20	0	96.17900085	16.84999847	-2.640167713	9.85346508	-2.535264492	1.0
[LeftEye]
18	30.6760006	64.09500122	92.83599854	0	0	0	1.0
19	30.6760006	64.09500122	92.83599854	0	0	0	1.0
20	30.6760006	64.09500122	92.83599854	0	0	0	1.0
[RightEye]
18	-30.6760006	64.09500122	92.83499908	0	0	0	1.0
19	-30.6760006	64.09500122	92.83499908	0	0	0	1.0
20	-30.6760006	64.09500122	92.83499908	0	0	0	1.0
[LeftShoulder]
18	45.70400238	109.4599991	-26.28000069	2.682161808	-8.734642029	-15.08725166	1.0
19	45.70400238	109.4599991	-26.28000069	2.691902399	-8.991831779	-14.67915249	1.0
20	45.70400238	109.4599991	-26.28000069	2.73367548	-9.368138313	-14.34604263	1.0
[LeftArm]
18	105.923996	-5.24600029	-22.32099915	20.04980278	-14.9318285	-53.91187286	1.0
19	105.923996	-5.24600029	-22.32099915	21.57501984	-17.40048981	-52.1568985	1.0
20	105.923996	-5.24600029	-22.32099915	22.52588654	-19.71155357	-49.79732132	1.0
[LeftForeArm]
18	278.414978	-0.0009999999311	0	-8.096110832e-06	-33.43844223	-0.0001812108967	1.0
19	278.414978	-0.0009999999311	0	-5.342223631e-06	-40.52200317	-0.000178953851	1.0
20	278.414978	-0.0009999999311	0	4.172988156e-06	-46.9738884	-0.0001958701905	1.0
[LeftHand]
18	283.2879944	0	0	3.976111174	5.059954166	-10.33938503	1.0
19	283.2879944	0	0	3.599512577	4.520304203	-7.720822811	1.0
20	283.2879944	0	0	3.849000931	4.001900673	-3.30322051	1.0
[LeftHandThumb1]
18	24.6609993	-15.75	26.8239994	5.839803696	2.504242897	11.148386	1.0
19	24.6609993	-15.75	26.8239994	5.839803696	2.504242897	11.148386	1.0
20	24.6609993	-15.75	26.8239994	5.839803696	2.504242897	11.148386	1.0
[LeftHandThumb2]
18	32.29800034	-18.64699936	18.64699936	4.153541565	10.76598358	6.451812267	1.0
19	32.29800034	-18.64699936	18.64699936	3.34555912	10.41947174	6.36526823	1.0
20	32.29800034	-18.64699936	18.64699936	2.504845142	9.907188416	6.102159023	1.0
[LeftHandThumb3]
18	26.52600098	-15.31499958	15.31499958	-0.2481592	-6.257261753	21.14521217	1.0
19	26.52600098	-15.31499958	15.31499958	-0.092108652	-5.894538879	21.07861137	1.0
20	26.52600098	-15.31499958	15.31499958	0.08302669227	-5.492589474	20.98744392	1.0
[LeftHandThumb4]
18	19.54599953	-11.28499985	11.28499985	0	0	0	1.0
19	19.54599953	-11.28499985	11.28499985	0	0	0	1.0
20	19.54599953	-11.28499985	11.28499985	0	0	0	1.0
[LeftHandIndex1]
18	91.09299469	-5.170999527	22.60099792	-0.8955385685	-2.790360928	-20.86815262	1.0
19	91.09299469	-5.170999527	22.60099792	-0.8999640346	-2.887694836	-20.77457237	1.0
20	91.09299469	-5.170999527	22.60099792	-0.8738266826	-2.863431454	-20.52344322	1.0
[LeftHandIndex2]
18	36.76399994	0	0	-0.1998928487	1.51531148	-15.02822495	1.0
19	36.76399994	0	0	-0.1998090893	1.515013456	-15.02515602	1.0
20	36.76399994	0	0	-0.1997669637	1.514927506	-15.02422905	1.0
[LeftHandIndex3]
18	28.83100128	0	0	-0.1998935789	1.515315175	-15.0282259	1.0
19	28.83100128	0	0	-0.199814707	1.515011907	-15.02515793	1.0
20	28.83100128	0	0	-0.1997889429	1.514926553	-15.02422428	1.0
[LeftHandIndex4]
18	23.92700005	0	0	0	0	0	1.0
19	23.92700005	0	0	0	0	0	1.0
20	23.92700005	0	0	0	0	0	1.0
[LeftHandMiddle1]
18	95.33399963	0	0	-1.833928823	4.16625309	-29.18700409	1.0
19	95.33399963	0	0	-1.816699147	3.983021736	-28.98849297	1.0
20	95.33399963	0	0	-1.784327865	3.838987112	-28.61152267	1.0
[LeftHandMiddle2]
18	36.98199844	0	0	-0.1249837205	1.202223897	-11.8705883	1.0
19	36.98199844	0	0	-0.1245376468	1.200070143	-11.84907341	1.0
20	36.98199844	0	0	-0.1241697595	1.198257089	-11.83092213	1.0
[LeftHandMiddle3]
18	29.50900078	0	0	-0.1701932251	1.400102735	-13.86112022	1.0
19	29.50900078	0	0	-0.1696660668	1.39796412	-13.83950996	1.0
20	29.50900078	0	0	-0.1692213565	1.396149993	-13.82128811	1.0
[LeftHandMiddle4]
18	28.3390007	0	0	0	0	0	1.0
19	28.3390007	0	0	0	0	0	1.0
20	28.3390007	0	0	0	0	0	1.0
[LeftHandRing1]
18	91.04499817	-0.4390000105	-18.65100098	-1.987696886	6.78130722	-30.96835136	1.0
19	91.04499817	-0.4390000105	-18.65100098	-1.960077763	6.70802784	-30.65364075	1.0
20	91.04499817	-0.4390000105	-18.65100098	-1.933609962	6.628665924	-30.34971428	1.0
[LeftHandRing2]
18	31.54000092	0	0	-0.3317038417	1.940646052	-19.39778328	1.0
19	31.54000092	0	0	-0.3333396614	1.945292711	-19.44610596	1.0
20	31.54000092	0	0	-0.3346181512	1.948895693	-19.48361969	1.0
[LeftHandRing3]
18	29.37700081	0	0	-0.4023883641	2.130632639	-21.38725853	1.0
19	29.37700081	0	0	-0.4041894674	2.135240793	-21.43573761	1.0
20	29.37700081	0	0	-0.4055915177	2.138830185	-21.47343826	1.0
[LeftHandRing4]
18	26.47500038	0	0	0	0	0	1.0
19	26.47500038	0	0	0	0	0	1.0
20	26.47500038	0	0	0	0	0	1.0
[LeftHandPinky1]
18	80.77799988	-4.887000084	-38.06099701	-2.404567242	6.022407055	-34.86734009	1.0
19	80.77799988	-4.887000084	-38.06099701	-2.353815317	5.71963501	-34.57889175	1.0
20	80.77799988	-4.887000084	-38.06099701	-2.291196108	5.261095524	-34.23119736	1.0
[LeftHandPinky2]
18	36	0	0	-0.2756014764	1.773340583	-17.66636658	1.0
19	36	0	0	-0.2754127085	1.772727132	-17.66002846	1.0
20	36	0	0	-0.2748307288	1.770898819	-17.6410675	1.0
[LeftHandPinky3]
18	21.14200211	0	0	-0.275601536	1.773341298	-17.6663475	1.0
19	21.14200211	0	0	-0.2754032016	1.772726774	-17.66002274	1.0
20	21.14200211	0	0	-0.2748161852	1.770891666	-17.64106369	1.0
[LeftHandPinky4]
18	19.75699997	0	0	0	0	0	1.0
19	19.75699997	0	0	0	0	0	1.0
20	19.75699997	0	0	0	0	0	1.0
[RightShoulder]
18	-45.70000076	109.4620056	-26.28000069	1.826112032	4.915394783	14.85040283	1.0
19	-45.70000076	109.4620056	-26.28000069	1.719347477	4.479866505	14.70356274	1.0
20	-45.70000076	109.4620056	-26.28000069	1.586990833	3.973811865	14.41179752	1.0
[RightArm]
18	-105.9280014	-5.248000145	-22.32099915	20.15191078	0.08378257602	57.59306335	1.0
19	-105.9280014	-5.248000145	-22.32099915	19.622015	-2.870397806	57.91886139	1.0
20	-105.9280014	-5.248000145	-22.32099915	18.97582436	-5.394587517	58.36568451	1.0
[RightForeArm]
18	-278.414978	0	0	3.413891818e-06	9.550920486	1.137804156e-05	1.0
19	-278.414978	0	0	3.09491088e-06	10.11074924	1.657704888e-05	1.0
20	-278.414978	0	0	-3.241157174e-06	10.7312603	-2.276418627e-06	1.0
[RightHand]
18	-283.2879944	0	0.0009999999311	7.728917122	9.245306969	11.1560173	1.0
19	-283.2879944	0	0.0009999999311	7.487070084	6.969765663	13.70987511	1.0
20	-283.2879944	0	0.0009999999311	7.0046525	4.106142998	15.55776978	1.0
[RightHandPinky1]
18	-80.76699829	-4.885000229	-38.06000137	-1.494318485	-4.741111755	26.93219948	1.0
19	-80.76699829	-4.885000229	-38.06000137	-1.511237025	-4.508070469	27.11897087	1.0
20	-80.76699829	-4.885000229	-38.06000137	-1.530144215	-4.25531292	27.30576134	1.0
[RightHandPinky2]
18	-36	0	0.0009999999311	-0.5673659444	-2.22279048	28.65445518	1.0
19	-36	0	0.0009999999311	-0.5644610524	-2.21745038	28.57929802	1.0
20	-36	0	0.0009999999311	-0.557600975	-2.204819918	28.40158844	1.0
[RightHandPinky3]
18	-21.14200211	0	0	-0.1787211597	-1.275340438	15.95402622	1.0
19	-21.14200211	0	0	-0.1769859493	-1.269239783	15.87560081	1.0
20	-21.14200211	0	0	-0.1729902178	-1.255118966	15.69432545	1.0
[RightHandPinky4]
18	-19.75699997	0	0	0	0	0	1.0
19	-19.75699997	0	0	0	0	0	1.0
20	-19.75699997	0	0	0	0	0	1.0
[RightHandRing1]
18	-91.03599548	-0.4390000105	-18.65100098	-1.133042336	-2.884780884	21.79815674	1.0
19	-91.03599548	-0.4390000105	-18.65100098	-1.154527187	-2.794467211	22.11812401	1.0
20	-91.03599548	-0.4390000105	-18.65100098	-1.181090951	-2.717280865	22.51185417	1.0
[RightHandRing2]
18	-31.54000092	0	0	-1.508587599	-3.421523809	47.5763092	1.0
19	-31.54000092	0	0	-1.50534749	-3.418565989	47.52196884	1.0
20	-31.54000092	0	0	-1.502148867	-3.415646076	47.46829987	1.0
[RightHandRing3]
18	-29.37700081	0	0	-0.3779699206	-1.834042549	23.28776169	1.0
19	-29.37700081	0	0	-0.3762300014	-1.830001473	23.23334312	1.0
20	-29.37700081	0	0	-0.3745131791	-1.825998783	23.17959785	1.0
[RightHandRing4]
18	-26.47500038	0	0	0	0	0	1.0
19	-26.47500038	0	0	0	0	0	1.0
20	-26.47500038	0	0	0	0	0	1.0
[RightHandMiddle1]
18	-95.32500458	0	0	-0.9443294406	-0.09913947433	19.03060341	1.0
19	-95.32500458	0	0	-0.9580259919	-0.1098759398	19.24304771	1.0
20	-95.32500458	0	0	-0.9725623131	-0.1638822854	19.46534348	1.0
[RightHandMiddle2]
18	-36.98199844	0	0	-0.8462127447	-2.670413256	35.15975189	1.0
19	-36.98199844	0	0	-0.8469994664	-2.671537876	35.17672348	1.0
20	-36.98199844	0	0	-0.8477498293	-2.672593594	35.19282532	1.0
[RightHandMiddle3]
18	-29.50900078	0	0	-0.2901607454	-1.616949797	20.37060356	1.0
19	-29.50900078	0	0	-0.2906402349	-1.618238211	20.3875618	1.0
20	-29.50900078	0	0	-0.2910977006	-1.619468808	20.40376854	1.0
[RightHandMiddle4]
18	-28.3390007	0	0.0009999999311	0	0	0	1.0
19	-28.3390007	0	0.0009999999311	0	0	0	1.0
20	-28.3390007	0	0.0009999999311	0	0	0	1.0
[RightHandIndex1]
18	-91.08300018	-5.167999744	22.60099792	-0.4845906496	4.120519161	16.54445457	1.0
19	-91.08300018	-5.167999744	22.60099792	-0.5226826668	4.094151497	17.09145546	1.0
20	-91.08300018	-5.167999744	22.60099792	-0.5798695683	4.065101624	17.86818314	1.0
[RightHandIndex2]
18	-36.76399994	0	0	-0.394877553	-1.872817516	23.81061745	1.0
19	-36.76399994	0	0	-0.3957159221	-1.874717712	23.83622932	1.0
20	-36.76399994	0	0	-0.3973631561	-1.878441215	23.88655281	1.0
[RightHandIndex3]
18	-28.83100128	0	0	-0.07840453833	-0.8494090438	10.54751205	1.0
19	-28.83100128	0	0	-0.0787845403	-0.8514409661	10.57310295	1.0
20	-28.83100128	0	0	-0.07953371108	-0.8554438353	10.62338352	1.0
[RightHandIndex4]
18	-23.92700005	0	0	0	0	0	1.0
19	-23.92700005	0	0	0	0	0	1.0
20	-23.92700005	0	0	0	0	0	1.0
[RightHandThumb1]
18	-24.64799881	-15.72700024	26.82600021	12.78110313	-2.167885065	-4.410644054	1.0
19	-24.64799881	-15.72700024	26.82600021	12.78110313	-2.167885065	-4.410644054	1.0
20	-24.64799881	-15.72700024	26.82600021	12.78110313	-2.167885065	-4.410644054	1.0
[RightHandThumb2]
18	-32.29800034	-18.64699936	18.64699936	8.440584183	-20.67017174	-11.22466183	1.0
19	-32.29800034	-18.64699936	18.64699936	8.634900093	-20.45183182	-11.10482979	1.0
20	-32.29800034	-18.64699936	18.64699936	8.969600677	-19.93143082	-10.89698029	1.0
[RightHandThumb3]
18	-26.52600098	-15.31399918	15.31399918	-15.41928577	-5.004687786	-11.19587898	1.0
19	-26.52600098	-15.31399918	15.31399918	-15.42774296	-4.984683514	-11.20219803	1.0
20	-26.52600098	-15.31399918	15.31399918	-15.43986416	-4.956002235	-11.21126461	1.0
[RightHandThumb4]
18	-19.54599953	-11.28499985	11.28499985	0	0	0	1.0
19	-19.54599953	-11.28499985	11.28499985	0	0	0	1.0
20	-19.54599953	-11.28499985	11.28499985	0	0	0	1.0
[LeftUpLeg]
18	82.07800293	-67.51699829	-15.99599934	-6.980053425	6.746290207	-5.10269928	1.0
19	82.07800293	-67.51699829	-15.99599934	-1.726171613	7.901740551	-4.636623383	1.0
20	82.07800293	-67.51699829	-15.99599934	2.906774521	9.564405441	-3.733067036	1.0
[LeftLeg]
18	0	-443.7049866	2.845999956	22.13675499	-9.751041412	1.096176744	1.0
19	0	-443.7049866	2.845999956	17.48998642	-9.680275917	2.479045153	1.0
20	0	-443.7049866	2.845999956	13.66187668	-7.778667927	3.547484875	1.0
[LeftFoot]
18	0	-444.2789917	-29.8219986	-14.66371536	-0.1717682481	1.49992013	1.0
19	0	-444.2789917	-29.8219986	-15.9908123	-2.452190399	0.9440521598	1.0
20	0	-444.2789917	-29.8219986	-17.40498352	-7.021530151	0.7980369925	1.0
[LeftToeBase]
18	0	-87.28699493	107.1060028	-6.639521599	1.357125825e-07	-2.526544165e-07	1.0
19	0	-87.28699493	107.1060028	-6.503074169	9.177953757e-07	-3.119422729e-07	1.0
20	0	-87.28699493	107.1060028	-6.578055859	2.202827773e-06	5.659214821e-07	1.0
[RightUpLeg]
18	-82.07800293	-67.51699829	-15.99599934	-37.81147385	-11.52813816	-2.335757971	1.0
19	-82.07800293	-67.51699829	-15.99599934	-41.68987656	-10.62877274	-1.837268114	1.0
20	-82.07800293	-67.51699829	-15.99599934	-42.88464737	-9.133260727	-1.625636578	1.0
[RightLeg]
18	0	-443.7049866	2.861999989	63.02243423	-1.08581388	-0.2978777587	1.0
19	0	-443.7049866	2.861999989	52.9536705	-1.381126881	-1.662200451	1.0
20	0	-443.7049866	2.861999989	39.30546188	-1.434725761	-3.719686985	1.0
[RightFoot]
18	0	-444.2770081	-29.83799934	-9.642980576	0.262650162	7.113858223	1.0
19	0	-444.2770081	-29.83799934	-10.07549572	0.2643131316	6.945989132	1.0
20	0	-444.2770081	-29.83799934	-8.283431053	0.152960673	6.732816696	1.0
[RightToeBase]
18	0	-87.28699493	107.1060028	-7.053290844	-4.653509791e-07	3.092793577e-09	1.0
19	0	-87.28699493	107.1060028	-6.549580097	-2.529274525e-06	-8.103347682e-07	1.0
20	0	-87.28699493	107.1060028	-6.406802654	-7.198312346e-07	-2.050346666e-07	1.0
[EndOfFile]
